<?xml version="1.0" encoding="UTF-8"?>
<svg width="71px" height="71px" viewBox="0 0 71 71" version="1.1" xmlns="http://www.w3.org/2000/svg" xmlns:xlink="http://www.w3.org/1999/xlink">
    <title>ICON / DESKTOP / expand</title>
    <defs>
        <polygon id="path-1" points="0.000241011954 0.016 48.4790973 0.016 48.4790973 47.3845915 0.000241011954 47.3845915"></polygon>
        <polygon id="path-3" points="0.426430667 0.391753846 0.802293333 0.391753846 0.802293333 1.00713846 0.426430667 1.00713846"></polygon>
    </defs>
    <g id="Page-1" stroke="none" stroke-width="1" fill="none" fill-rule="evenodd">
        <g id="Game-page-LIS3" transform="translate(-635.000000, -2270.000000)">
            <g id="media" transform="translate(120.000000, 1944.000000)">
                <g id="ICON-/-DESKTOP-/-expand" transform="translate(526.000000, 337.000000)">
                    <g id="Group" transform="translate(24.500000, 24.500000) rotate(-45.000000) translate(-24.500000, -24.500000) ">
                        <g id="Group-15">
                            <g id="Group-3" transform="translate(0.000000, 0.599323)">
                                <mask id="mask-2" fill="white">
                                    <use xlink:href="#path-1"></use>
                                </mask>
                                <g id="Clip-2"></g>
                                <path d="M48.4790973,30.1512 C48.1066973,31.4287385 47.4899507,32.9887385 46.692884,34.4687385 C46.5190973,34.8515077 46.2708307,35.1961231 46.0506573,35.5487385 C45.8239507,35.8988923 45.6005107,36.2441231 45.3829507,36.5807385 C44.9086307,37.2293538 44.405564,37.8090462 43.9750173,38.3327385 L43.8025373,38.2010462 C44.2004173,37.6601231 44.685844,37.0792 45.154284,36.4373538 C45.3711907,36.1062769 45.5939773,35.7653538 45.8200307,35.4207385 C46.0415107,35.0736615 46.293044,34.7358154 46.4707507,34.3598154 C47.2841507,32.9081231 47.9322573,31.3702769 48.2654573,30.0939692 C48.1935907,30.0748923 48.051164,30.0367385 47.9799507,30.0176615 C47.9440173,30.0084308 48.011964,29.6896615 48.131524,29.2176615 C48.1929373,28.9819692 48.264804,28.7075077 48.3425507,28.4139692 C48.3595373,28.3062769 48.3791373,28.1893538 48.3974307,28.0773538 C48.368684,28.2539692 48.3366707,28.4373538 48.282444,28.6287385 C48.164844,29.0595077 48.0367907,29.5296615 47.908084,29.9992 C47.7996307,30.4748923 47.6108173,30.9272 47.447484,31.3444308 C47.2854573,31.7622769 47.137804,32.1413538 47.020204,32.4447385 C46.951604,32.4182769 46.814404,32.3647385 46.7464573,32.3376615 C46.7118307,32.3241231 46.8111373,32.0188923 46.9764307,31.5672 C47.1266973,31.1112 47.4135107,30.5296615 47.5520173,29.9032 C47.410244,29.8607385 47.598404,28.6102769 47.1952973,29.8078154 C47.0600573,30.4244308 46.7765107,30.9967385 46.5628707,31.5893538 C46.442004,31.8810462 46.3505373,32.1838154 46.2054973,32.4656615 L45.7723373,33.3118154 C46.055884,32.7450462 46.322444,32.2145846 46.4825107,31.6853538 C46.6621773,31.1641231 46.8372707,30.6841231 46.971204,30.2342769 C47.1587107,29.3118154 47.347524,28.5548923 47.390644,27.9333538 C47.4598973,26.6853538 47.412204,26.0705846 47.3011373,26.0595077 C47.1802707,27.1032 47.0404573,27.2348923 46.8816973,28.0121231 C46.9195907,27.7068923 46.9293907,27.3992 46.9679373,27.1056615 C47.0019107,26.6693538 47.0626707,26.2539692 47.0639773,25.8675077 C47.0430707,25.0915077 47.0175907,24.4539692 46.982964,24.0810462 C46.9509507,23.7105846 46.8836573,23.5696615 46.8464173,23.8755077 C46.7882707,24.1530462 46.720324,24.8176615 46.638004,25.9955077 C46.0591507,31.1382769 43.3027373,36.0244308 39.0906973,39.3727385 C36.994804,41.0521231 34.5572173,42.3530462 31.945844,43.1733538 C29.3357773,43.9973538 26.5525773,44.3345846 23.796164,44.1838154 C18.2781107,43.9136615 12.924044,41.5333538 9.16933733,37.6865846 C5.37869733,33.8693538 3.269084,28.6472 3.39779067,23.4065846 C3.46247067,18.1647385 5.811204,13.0041231 9.78085733,9.31550769 C13.7184973,5.60289231 19.205844,3.38689231 24.7892307,3.35612308 C30.366084,3.26135385 35.918764,5.27181538 39.979884,8.85950769 C44.0710573,12.4145846 46.606644,17.4736615 46.9110973,22.6865846 C46.9607507,23.2816615 47.0058307,23.6539692 47.0450307,23.8785846 C47.0718173,24.1179692 47.1018707,24.1973538 47.133884,24.1973538 C47.1992173,24.1967385 47.273044,23.8761231 47.347524,23.8761231 C47.3285773,18.9912 45.3176173,14.3259692 43.0387907,11.3881231 C42.2600173,10.4072 44.0573373,12.2041231 43.3968173,11.1395077 C42.690564,10.0804308 40.8194173,8.31612308 39.8178573,7.50996923 C38.972444,6.50935385 41.1003507,8.03858462 40.250364,7.0312 C40.050444,6.75981538 39.5754707,6.42196923 39.0129507,5.99304615 C38.7241773,5.78812308 38.4282173,5.53950769 38.080644,5.33458462 C37.731764,5.13089231 37.3698173,4.92043077 37.0072173,4.70873846 C36.2983507,4.25766154 35.5065107,3.95058462 34.8636307,3.63550769 C34.225324,3.30689231 33.6556173,3.13150769 33.3505107,2.98073846 C31.444084,2.24966154 32.0974173,2.41889231 33.731404,2.94504615 C33.9345907,3.01212308 34.1560707,3.07858462 34.384084,3.16166154 C34.6062173,3.25827692 34.8394573,3.35981538 35.0811907,3.46566154 C35.562044,3.68412308 36.091244,3.89273846 36.6014973,4.15550769 C37.1019507,4.43796923 37.6108973,4.72535385 38.106124,5.00473846 C38.609844,5.27304615 39.031244,5.62812308 39.454604,5.90812308 C38.9463107,5.46258462 39.5003373,5.85273846 40.193524,6.34196923 C40.854044,6.86873846 41.608644,7.54196923 41.6641773,7.4872 C41.7660973,7.38566154 41.8719373,7.2872 41.442044,6.74196923 C41.2153373,6.48289231 40.905004,6.05212308 40.285644,5.57150769 C39.9844573,5.32104615 39.6277373,5.03304615 39.2050307,4.70135385 C38.7908173,4.35796923 38.2446307,4.06381538 37.6527107,3.67858462 C36.4571107,2.91550769 37.7977507,3.43489231 37.8781107,3.31796923 L37.173164,2.91612308 C36.930124,2.79489231 36.679244,2.68781538 36.4316307,2.57273846 C35.934444,2.34750769 35.436604,2.12227692 34.936804,1.89643077 C34.4167507,1.71550769 33.8953907,1.53458462 33.3733773,1.35304615 L32.5874173,1.08412308 L31.777284,0.885353846 L30.1491773,0.494584615 L28.4838307,0.253969231 L27.6488707,0.135815385 L26.804764,0.0933538462 L25.113284,0.0158153846 C24.5494573,0.0299692308 23.9836707,0.0650461538 23.417884,0.0902769231 L22.569204,0.133969231 C22.286964,0.154276923 22.0073373,0.208430769 21.7257507,0.244123077 L20.0401507,0.490892308 C19.4854707,0.6072 18.9360173,0.753046154 18.3839507,0.884738462 L17.5561773,1.08904615 L16.751924,1.36289231 L15.148644,1.9272 C14.1300973,2.41150769 13.065164,2.81704615 12.114564,3.41827692 C8.17431067,5.60596923 4.99061733,8.88350769 2.849644,12.6108923 C0.802097333,16.3832 -0.242582667,20.6108923 0.0481506667,24.6908923 C0.220630667,28.0859692 1.181684,31.6275077 2.990764,34.8687385 C4.803764,38.1068923 7.516404,40.9733538 10.7471373,43.1481231 C13.978524,45.3333538 17.8155507,46.6736615 21.6427773,47.1715077 C25.4745773,47.6576615 29.325324,47.3044308 32.688684,46.1887385 C34.7323107,45.5425846 37.369164,44.4158154 39.5715507,42.9395077 C40.107284,42.5542769 40.6645773,42.2096615 41.1375907,41.8065846 C41.6040707,41.3979692 42.0522573,41.0059692 42.473004,40.6373538 C42.8839507,40.2619692 43.2047373,39.8552 43.513764,39.5105846 C43.809724,39.1548923 44.0873907,38.8515077 44.2631373,38.5530462 C43.8123373,39.0736615 43.3125373,39.5555077 42.837564,40.0576615 C42.3665107,40.5635077 41.798764,40.9788923 41.2819773,41.4416615 C41.6667907,41.0847385 42.0463773,40.7321231 42.4253107,40.3807385 C42.7879107,40.0115077 43.1302573,39.6250462 43.4876307,39.2515077 L44.0200973,38.6896615 C44.1893107,38.4958154 44.3421907,38.2896615 44.5048707,38.0902769 L45.469844,36.8872 L46.318524,35.6078154 L46.739924,34.9659692 L47.0959907,34.2896615 L47.794404,32.9296615 L48.3320973,31.5068923 C48.2621907,31.4841231 48.209924,31.4662769 48.2269107,31.2952 C48.2360573,31.1228923 48.3562707,30.8084308 48.4790973,30.1512" id="Fill-1" fill="#FFFFFF" mask="url(#mask-2)"></path>
                            </g>
                            <g id="Group-6" transform="translate(47.693333, 27.676246)">
                                <mask id="mask-4" fill="white">
                                    <use xlink:href="#path-3"></use>
                                </mask>
                                <g id="Clip-5"></g>
                                <path d="M0.703770667,1.00036923 C0.739704,0.781292308 0.767797333,0.574523077 0.802424,0.398523077 C0.769104,0.603446154 0.736437333,0.800984615 0.703770667,1.00036923" id="Fill-4" fill="#FFFFFF" mask="url(#mask-4)"></path>
                            </g>
                            <path d="M21.3297,17.4873231 L21.1663667,17.3334769 C21.2212467,17.3857846 21.2754733,17.4362462 21.3297,17.4873231" id="Fill-7" fill="#FFFFFF"></path>
                            <path d="M20.923588,17.1048 L21.166628,17.3337231 C21.074508,17.2469538 20.9856547,17.1632615 20.923588,17.1048" id="Fill-9" fill="#FFFFFF"></path>
                            <path d="M21.3297,17.4873231 C21.3617133,17.5174769 21.39438,17.5488615 21.42574,17.5784 C21.3956867,17.5494769 21.3643267,17.5199385 21.3297,17.4873231" id="Fill-13" fill="#FFFFFF"></path>
                        </g>
                        <ellipse id="Oval" fill="#FFFFFF" cx="25.0326087" cy="24.5" rx="22.9021739" ry="21.5"></ellipse>
                        <path d="M33.1092028,22.8011448 L32.8283752,22.5563998 C33.2312842,22.9654785 33.6535329,23.3696413 34.0822281,23.7706438 L34.2429888,23.9205808 L34.3203473,23.9929158 L34.3412986,24.0157399 L34.4214775,24.1031739 L34.5624957,24.260836 C34.4468608,24.3412472 34.3376724,24.4121776 34.2417801,24.4602839 C33.8763416,24.7422497 33.4943838,25.027727 33.1196784,25.2872199 C33.0016261,25.347616 32.7659243,25.4684084 32.6478719,25.5288046 C31.8263404,26.1173161 30.9145572,26.9544352 30.2147042,27.6493424 C29.8649792,27.9966204 29.8516832,28.4748738 29.8516832,28.4748738 C29.8065574,28.5988264 29.8101836,28.765267 29.9528134,28.7262904 C30.1643406,28.5840785 30.632118,28.1764043 30.7292191,28.2613803 C30.7537965,28.2824488 30.6603216,28.3639134 30.5664438,28.445378 C30.6639478,28.530354 30.5781282,28.9446999 30.4842504,29.0261645 C30.4395275,29.1504682 30.0241283,29.7667199 29.9790024,29.8906725 C29.7711014,30.199325 30.9786198,29.7832235 31.4258488,29.5209215 C31.6619535,29.399778 31.5475273,29.6266148 31.6204539,29.6905224 C31.783632,29.5061736 31.9504364,29.4879143 32.1132116,29.3035655 C32.1373862,29.3246339 32.7232159,28.8569147 33.0040435,28.6121697 C33.0040435,28.6121697 33.0733439,28.5092856 33.3537686,28.2648917 C33.4472435,28.183076 33.4230689,28.1620076 33.3988944,28.1409391 L33.4472435,28.183076 C33.4923693,28.0591234 33.728474,27.938331 33.7977743,27.8350957 L33.8465263,27.8779349 C33.9847241,27.6725176 34.2204259,27.5517253 34.3832011,27.3673765 C34.4077786,27.3884449 34.4077786,27.3884449 34.4319531,27.4098645 C34.5258309,27.3283999 34.6193058,27.2469353 34.6434804,27.2680037 C34.6676549,27.2890722 34.6676549,27.2890722 34.6922324,27.3104917 C34.8102847,27.2500955 34.9484825,27.0443272 34.9976374,27.0868152 L34.9484825,27.0443272 C35.3231879,26.7181176 35.6281901,26.4947922 35.9331922,26.2711157 C36.062526,26.2026433 36.6036329,25.7577482 37.0182263,25.4108213 C37.4573971,25.0424749 37.9058349,24.6527089 38.3478261,24.260836 C37.9235629,23.9030238 37.4924502,23.5395933 37.0601288,23.1747583 C36.8469899,22.9984858 36.6342539,22.8222132 36.4227267,22.6469941 L36.1221566,22.3997911 L35.9601871,22.2740828 C35.8667122,22.1926182 35.7244853,22.1532904 35.7692082,22.2772431 L35.4883806,22.0324981 C35.3014308,21.8695689 35.3219792,22.0145899 35.1346265,21.8516607 C33.5153351,20.6521646 32.1394007,19.2412818 30.5688613,18 C30.9189892,18.347278 31.1514678,18.634511 31.5499448,18.939301 C31.5253673,18.9607205 31.4770183,19.0032086 31.5704932,19.0846732 C32.1079738,19.5955827 32.811453,20.1236981 32.9947766,20.453419 C33.0644799,20.5563032 33.0846253,20.7013243 33.3654529,20.9460692 L33.0846253,20.7013243 L33.0116988,20.7648807 C33.3654529,21.1125098 33.8022063,21.5419547 34.1555575,21.8892327 C34.1555575,21.8892327 34.1072085,21.9313696 34.0830339,21.9527892 L34.2699837,22.1157184 C34.286503,22.4275312 33.2812449,21.5089475 32.7888901,21.1223418 C32.7647155,21.1434102 32.7159635,21.1858982 32.6913861,21.2069667 L32.8787388,21.370247 L32.8303897,21.412735 C32.2687345,20.9232451 31.8009571,20.5155709 31.238899,20.026081 C31.3327768,20.1078967 31.5201295,20.2708259 31.6136044,20.3526417 C31.5894299,20.3737101 31.5648524,20.3947786 31.6583273,20.4765943 C31.2840248,20.1500336 30.840422,19.7209398 30.4173675,19.4372183 C30.299718,19.3771732 30.3202664,19.5221943 30.5765166,19.7876565 C30.8573442,20.0327527 31.0442939,20.1956819 31.3255245,20.4404268 L31.2767725,20.4829148 C31.0894198,20.3196345 30.8331696,20.0538211 30.6212395,19.9119603 C30.5031871,19.8515641 30.7356656,20.1387971 30.6176133,20.0784009 C30.5237355,19.9969363 30.4302606,19.9151206 30.3122082,19.8547244 C30.5934387,20.0998205 30.9919158,20.4046105 31.2485688,20.670775 C31.3178692,20.7733081 31.3871695,20.8761923 31.3384175,20.9186803 C31.8303695,21.3049349 32.1317454,21.695052 32.2908945,22.0458414 C32.3356174,22.169794 32.8283752,22.5563998 33.1092028,22.8011448" id="Fill-4" fill="#000000"></path>
                        <path d="M13.9352897,22.8011448 L13.6544621,22.5563998 C14.0573712,22.9654785 14.4796198,23.3696413 14.9083151,23.7706438 L15.0690758,23.9205808 L15.1464343,23.9929158 L15.1673856,24.0157399 L15.2475645,24.1031739 L15.3885826,24.260836 C15.2729477,24.3412472 15.1637594,24.4121776 15.067867,24.4602839 C14.7024285,24.7422497 14.3204708,25.027727 13.9457654,25.2872199 C13.827713,25.347616 13.5920112,25.4684084 13.4739589,25.5288046 C12.6524273,26.1173161 11.7406442,26.9544352 11.0407912,27.6493424 C10.6910661,27.9966204 10.6777701,28.4748738 10.6777701,28.4748738 C10.6326443,28.5988264 10.6362705,28.765267 10.7789003,28.7262904 C10.9904276,28.5840785 11.458205,28.1764043 11.555306,28.2613803 C11.5798835,28.2824488 11.4864086,28.3639134 11.3925308,28.445378 C11.4900348,28.530354 11.4042151,28.9446999 11.3103373,29.0261645 C11.2656144,29.1504682 10.8502152,29.7667199 10.8050894,29.8906725 C10.5971883,30.199325 11.8047067,29.7832235 12.2519358,29.5209215 C12.4880405,29.399778 12.3736143,29.6266148 12.4465408,29.6905224 C12.609719,29.5061736 12.7765233,29.4879143 12.9392986,29.3035655 C12.9634731,29.3246339 13.5493029,28.8569147 13.8301305,28.6121697 C13.8301305,28.6121697 13.8994308,28.5092856 14.1798555,28.2648917 C14.2733304,28.183076 14.2491559,28.1620076 14.2249813,28.1409391 L14.2733304,28.183076 C14.3184562,28.0591234 14.5545609,27.938331 14.6238613,27.8350957 L14.6726133,27.8779349 C14.8108111,27.6725176 15.0465129,27.5517253 15.2092881,27.3673765 C15.2338656,27.3884449 15.2338656,27.3884449 15.2580401,27.4098645 C15.3519179,27.3283999 15.4453928,27.2469353 15.4695673,27.2680037 C15.4937419,27.2890722 15.4937419,27.2890722 15.5183193,27.3104917 C15.6363717,27.2500955 15.7745695,27.0443272 15.8237244,27.0868152 L15.7745695,27.0443272 C16.1492749,26.7181176 16.454277,26.4947922 16.7592792,26.2711157 C16.888613,26.2026433 17.4297198,25.7577482 17.8443132,25.4108213 C18.2834841,25.0424749 18.7319218,24.6527089 19.173913,24.260836 C18.7496498,23.9030238 18.3185372,23.5395933 17.8862158,23.1747583 C17.6730769,22.9984858 17.4603409,22.8222132 17.2488137,22.6469941 L16.9482435,22.3997911 L16.7862741,22.2740828 C16.6927992,22.1926182 16.5505723,22.1532904 16.5952952,22.2772431 L16.3144676,22.0324981 C16.1275178,21.8695689 16.1480662,22.0145899 15.9607135,21.8516607 C14.341422,20.6521646 12.9654877,19.2412818 11.3949482,18 C11.7450762,18.347278 11.9775547,18.634511 12.3760317,18.939301 C12.3514543,18.9607205 12.3031052,19.0032086 12.3965801,19.0846732 C12.9340608,19.5955827 13.6375399,20.1236981 13.8208636,20.453419 C13.8905668,20.5563032 13.9107123,20.7013243 14.1915399,20.9460692 L13.9107123,20.7013243 L13.8377857,20.7648807 C14.1915399,21.1125098 14.6282933,21.5419547 14.9816445,21.8892327 C14.9816445,21.8892327 14.9332954,21.9313696 14.9091209,21.9527892 L15.0960707,22.1157184 C15.1125899,22.4275312 14.1073319,21.5089475 13.614977,21.1223418 C13.5908025,21.1434102 13.5420505,21.1858982 13.5174731,21.2069667 L13.7048258,21.370247 L13.6564767,21.412735 C13.0948215,20.9232451 12.6270441,20.5155709 12.064986,20.026081 C12.1588638,20.1078967 12.3462165,20.2708259 12.4396914,20.3526417 C12.4155168,20.3737101 12.3909394,20.3947786 12.4844143,20.4765943 C12.1101118,20.1500336 11.6665089,19.7209398 11.2434544,19.4372183 C11.125805,19.3771732 11.1463534,19.5221943 11.4026035,19.7876565 C11.6834311,20.0327527 11.8703809,20.1956819 12.1516114,20.4404268 L12.1028594,20.4829148 C11.9155067,20.3196345 11.6592566,20.0538211 11.4473264,19.9119603 C11.3292741,19.8515641 11.5617526,20.1387971 11.4437002,20.0784009 C11.3498224,19.9969363 11.2563475,19.9151206 11.1382952,19.8547244 C11.4195257,20.0998205 11.8180027,20.4046105 12.0746558,20.670775 C12.1439561,20.7733081 12.2132565,20.8761923 12.1645045,20.9186803 C12.6564564,21.3049349 12.9578324,21.695052 13.1169815,22.0458414 C13.1617044,22.169794 13.6544621,22.5563998 13.9352897,22.8011448" id="Fill-4-Copy" fill="#000000" transform="translate(14.913043, 24.000000) scale(-1, 1) translate(-14.913043, -24.000000) "></path>
                    </g>
                </g>
            </g>
        </g>
    </g>
</svg>